<svg xmlns="http://www.w3.org/2000/svg" viewBox="0 0 512 512" role="img" aria-label="TerraScope logo">
  <defs>
    <linearGradient id="ocean" x1="0" y1="0" x2="1" y2="1">
      <stop offset="0%" stop-color="#4ea3e8" />
      <stop offset="100%" stop-color="#1e7ec9" />
    </linearGradient>
    <linearGradient id="hexStroke" x1="0" y1="0" x2="1" y2="1">
      <stop offset="0%" stop-color="#2d84cf" />
      <stop offset="100%" stop-color="#2ea566" />
    </linearGradient>
    <linearGradient id="planeBlue" x1="0" y1="0" x2="1" y2="0.9">
      <stop offset="0%" stop-color="#2f90dc" />
      <stop offset="100%" stop-color="#1e5ea8" />
    </linearGradient>
  </defs>

  <path
    d="M256 40 L430 138 L430 338 L256 444 L82 338 L82 138 Z"
    fill="none"
    stroke="url(#hexStroke)"
    stroke-width="20"
    stroke-linejoin="round"
  />

  <circle cx="256" cy="256" r="150" fill="url(#ocean)" />

  <path
    d="M146 220 C170 185, 220 164, 255 174 C238 198, 228 219, 206 233 C186 245, 165 245, 146 220 Z"
    fill="#61b86c"
  />
  <path
    d="M198 167 C217 152, 231 145, 248 145 C239 158, 232 169, 224 183 C213 181, 204 176, 198 167 Z"
    fill="#4da95a"
  />
  <path
    d="M278 176 C304 158, 334 152, 360 161 C345 188, 336 212, 318 228 C298 246, 287 260, 282 284 C262 272, 244 255, 240 236 C249 217, 262 194, 278 176 Z"
    fill="#4cae64"
  />
  <path
    d="M198 286 C218 277, 238 280, 255 294 C266 307, 271 326, 272 349 C247 350, 220 341, 200 324 C189 313, 186 298, 198 286 Z"
    fill="#4aa85a"
  />
  <path
    d="M284 292 C305 284, 327 286, 346 300 C359 312, 363 329, 355 344 C339 359, 317 364, 295 359 C286 339, 282 316, 284 292 Z"
    fill="#60b96e"
  />

  <g stroke="#f5c53d" stroke-width="5" stroke-linecap="round" opacity="0.95">
    <line x1="112" y1="370" x2="234" y2="248" />
    <line x1="178" y1="404" x2="266" y2="260" />
    <line x1="270" y1="415" x2="304" y2="268" />
  </g>

  <g stroke="#eaf4ff" stroke-linecap="round" fill="none">
    <path d="M120 318 C188 295, 252 273, 302 246" stroke-width="8" opacity="0.95" />
    <path d="M132 286 C210 258, 280 227, 336 195" stroke-width="6" opacity="0.9" />
  </g>

  <path
    d="M304 167 L448 120 L372 268 L346 228 Z"
    fill="url(#planeBlue)"
  />
  <path
    d="M304 167 L372 268 L336 195 Z"
    fill="#184f91"
  />
  <path
    d="M252 206 L304 167 L346 228 L289 242 Z"
    fill="#2f80cf"
    opacity="0.98"
  />
</svg>
